<svg xmlns="http://www.w3.org/2000/svg" xmlns:xlink="http://www.w3.org/1999/xlink" width="200" zoomAndPan="magnify" viewBox="0 0 150 37.5" height="50" preserveAspectRatio="xMidYMid meet" version="1.2"><defs><clipPath id="f38aaf4a3d"><path d="M 1 5.179688 L 39 5.179688 L 39 31.824219 L 1 31.824219 Z M 1 5.179688 "/></clipPath></defs><g id="a3ae7f7193"><g clip-rule="nonzero" clip-path="url(#f38aaf4a3d)"><path style=" stroke:none;fill-rule:nonzero;fill:#f09c96;fill-opacity:1;" d="M 36.667969 14.964844 C 36.117188 15.09375 38.851562 12.554688 34.527344 11.105469 C 33.6875 10.964844 32.910156 8.65625 31.558594 7.875 C 31.703125 7.875 29.214844 5.539062 23.832031 5.253906 C 10.570312 5.179688 4.6875 19.289062 4.6875 19.289062 C 4.6875 19.289062 4.121094 21.207031 2.84375 21.207031 C 1.851562 21.558594 1.019531 24.234375 2.988281 25.8125 C 3.140625 25.9375 2.472656 27.230469 3.980469 28.152344 C 12.621094 31.808594 17.3125 30.914062 17.3125 30.914062 C 17.3125 30.914062 26.667969 30.5625 33.972656 24.960938 C 34.753906 24.324219 40.921875 17.878906 36.667969 14.964844 Z M 33.226562 18.476562 C 32.617188 18.351562 33.625 19.613281 32.339844 19.292969 C 31.347656 19.042969 32.535156 20.28125 31.347656 20 C 30.425781 19.785156 31.101562 21.445312 29.929688 20.921875 C 28.902344 20.460938 30 22.273438 28.371094 21.703125 C 27.058594 21.242188 28.746094 23.183594 26.632812 22.304688 C 25.355469 21.773438 26.65625 23.886719 24.859375 22.554688 C 24.089844 21.984375 24.613281 23.949219 23.476562 23.050781 C 22.425781 22.222656 22.910156 24.328125 21.882812 23.335938 C 20.855469 22.34375 21.277344 24.644531 20.429688 23.722656 C 19.578125 22.414062 19.613281 24.71875 18.867188 24.007812 C 17.414062 22.734375 18.152344 25.03125 17.097656 24.113281 C 15.957031 23.121094 16.492188 25.742188 15.394531 24.46875 C 14.386719 23.300781 14.574219 25.8125 13.867188 24.894531 C 13.050781 23.832031 13.207031 26.222656 12.203125 25.140625 C 11.925781 24.574219 11.535156 25.203125 11.351562 25.675781 C 11.308594 25.785156 10.835938 25.785156 10.75 25.320312 C 10.703125 25.066406 10.289062 25.191406 10.109375 25.421875 C 10.214844 25.527344 9.523438 26.675781 9.226562 25.496094 C 8.601562 25.085938 8.464844 26.398438 7.949219 26.207031 C 7.472656 26.03125 7.6875 25.371094 7.011719 25.867188 C 6.800781 26.117188 6.777344 26.535156 6.398438 26.371094 C 5.992188 26.191406 6.15625 26.066406 5.960938 25.816406 C 5.820312 25.632812 5.429688 25.707031 5.164062 25.683594 C 5.066406 25.679688 4.882812 25.535156 4.882812 25.535156 C 4.882812 25.535156 6.351562 25.460938 6.390625 24.46875 C 6.78125 24.894531 7.984375 25.035156 7.878906 24.222656 C 8.222656 24.644531 9.082031 24.753906 9.082031 24.148438 C 9.828125 24.433594 10.039062 24.347656 10.324219 23.867188 C 10.460938 23.636719 11.222656 24.519531 11.601562 23.652344 C 11.652344 23.53125 12.519531 24.164062 12.949219 23.441406 C 13.117188 23.15625 13.765625 24.019531 14.117188 23.15625 C 14.261719 22.800781 15.183594 23.628906 15.394531 22.800781 C 15.523438 22.292969 16.316406 23.394531 16.742188 22.625 C 16.917969 21.914062 17.554688 23.261719 18.121094 22.199219 C 18.230469 21.914062 19.078125 22.910156 19.292969 22.09375 C 19.570312 21.855469 20.109375 22.753906 20.5 21.878906 C 20.648438 21.542969 21.320312 22.292969 21.597656 21.773438 C 21.792969 21.410156 22.730469 22.136719 22.839844 21.558594 C 22.921875 21.117188 23.949219 21.964844 24.042969 21.242188 C 24.082031 20.945312 24.941406 21.8125 25.214844 20.921875 C 25.332031 20.53125 26.457031 21.472656 26.457031 20.601562 C 26.457031 20.214844 27.300781 21.082031 27.484375 20.214844 C 27.625 19.539062 28.703125 20.261719 28.867188 19.789062 C 29.046875 19.257812 29.777344 19.925781 30.105469 19.328125 C 30.480469 18.65625 31.1875 19.296875 31.242188 18.832031 C 31.304688 18.28125 32.277344 18.882812 32.304688 18.371094 C 32.347656 17.519531 33.234375 18.183594 33.367188 17.875 C 33.742188 17 34.476562 17.417969 34.820312 17.058594 C 34.972656 16.898438 35.175781 17.730469 34.183594 17.695312 C 33.9375 17.660156 34.128906 18.660156 33.226562 18.476562 Z M 33.226562 18.476562 "/></g><g style="fill:#000000;fill-opacity:1;"><g transform="translate(48.074599, 25.917644)"><path style="stroke:none" d="M 1.234375 -16.6875 L 8.453125 -16.6875 L 8.453125 -14.203125 L 4.921875 -14.203125 L 4.921875 -10 L 8 -10 L 8 -7.421875 L 4.921875 -7.421875 L 4.921875 0 L 1.234375 0 Z M 1.234375 -16.6875 "/></g></g><g style="fill:#000000;fill-opacity:1;"><g transform="translate(57.839874, 25.917644)"><path style="stroke:none" d="M 3.5 0.203125 C 2.925781 0.203125 2.425781 0.0625 2 -0.21875 C 1.582031 -0.5 1.265625 -0.863281 1.046875 -1.3125 C 0.835938 -1.757812 0.734375 -2.222656 0.734375 -2.703125 C 0.734375 -3.617188 0.96875 -4.375 1.4375 -4.96875 C 1.90625 -5.5625 2.460938 -6.019531 3.109375 -6.34375 C 3.765625 -6.675781 4.609375 -7.019531 5.640625 -7.375 L 5.640625 -8.578125 C 5.640625 -8.921875 5.585938 -9.179688 5.484375 -9.359375 C 5.390625 -9.535156 5.210938 -9.625 4.953125 -9.625 C 4.679688 -9.625 4.488281 -9.539062 4.375 -9.375 C 4.269531 -9.207031 4.210938 -8.972656 4.203125 -8.671875 L 4.125 -7.8125 L 0.984375 -7.9375 C 1.046875 -9.363281 1.425781 -10.414062 2.125 -11.09375 C 2.820312 -11.78125 3.863281 -12.125 5.25 -12.125 C 6.414062 -12.125 7.304688 -11.796875 7.921875 -11.140625 C 8.546875 -10.484375 8.859375 -9.613281 8.859375 -8.53125 L 8.859375 -2.96875 C 8.859375 -1.757812 8.925781 -0.769531 9.0625 0 L 6.0625 0 C 5.9375 -0.914062 5.847656 -1.476562 5.796875 -1.6875 C 5.628906 -1.132812 5.351562 -0.679688 4.96875 -0.328125 C 4.582031 0.0234375 4.09375 0.203125 3.5 0.203125 Z M 4.703125 -2.0625 C 5.046875 -2.0625 5.359375 -2.257812 5.640625 -2.65625 L 5.640625 -5.921875 C 5.023438 -5.554688 4.554688 -5.175781 4.234375 -4.78125 C 3.921875 -4.394531 3.765625 -3.921875 3.765625 -3.359375 C 3.765625 -2.960938 3.847656 -2.644531 4.015625 -2.40625 C 4.179688 -2.175781 4.410156 -2.0625 4.703125 -2.0625 Z M 4.703125 -2.0625 "/></g></g><g style="fill:#000000;fill-opacity:1;"><g transform="translate(68.470406, 25.917644)"><path style="stroke:none" d="M 1.09375 -11.90625 L 4.453125 -11.90625 L 4.453125 -9.9375 C 4.859375 -10.664062 5.253906 -11.203125 5.640625 -11.546875 C 6.023438 -11.890625 6.476562 -12.0625 7 -12.0625 C 7.195312 -12.0625 7.367188 -12.039062 7.515625 -12 L 7.515625 -8.65625 C 7.109375 -8.820312 6.75 -8.90625 6.4375 -8.90625 C 5.707031 -8.90625 5.046875 -8.519531 4.453125 -7.75 L 4.453125 0 L 1.09375 0 Z M 1.09375 -11.90625 "/></g></g><g style="fill:#000000;fill-opacity:1;"><g transform="translate(77.185018, 25.917644)"><path style="stroke:none" d="M 1.046875 -11.90625 L 4.34375 -11.90625 L 4.34375 -10.96875 C 5.144531 -11.75 6.085938 -12.140625 7.171875 -12.140625 C 7.648438 -12.140625 8.0625 -12.019531 8.40625 -11.78125 C 8.757812 -11.539062 9.03125 -11.1875 9.21875 -10.71875 C 10.050781 -11.664062 11.054688 -12.140625 12.234375 -12.140625 C 12.941406 -12.140625 13.503906 -11.878906 13.921875 -11.359375 C 14.335938 -10.847656 14.546875 -10.144531 14.546875 -9.25 L 14.546875 0 L 11.25 0 L 11.25 -8.90625 C 11.25 -9.226562 11.191406 -9.460938 11.078125 -9.609375 C 10.960938 -9.753906 10.785156 -9.828125 10.546875 -9.828125 C 10.398438 -9.828125 10.222656 -9.789062 10.015625 -9.71875 C 9.804688 -9.644531 9.613281 -9.535156 9.4375 -9.390625 L 9.4375 0 L 6.1875 0 L 6.1875 -8.90625 C 6.1875 -9.519531 5.945312 -9.828125 5.46875 -9.828125 C 5.144531 -9.828125 4.769531 -9.679688 4.34375 -9.390625 L 4.34375 0 L 1.046875 0 Z M 1.046875 -11.90625 "/></g></g><g style="fill:#000000;fill-opacity:1;"><g transform="translate(93.522115, 25.917644)"><path style="stroke:none" d="M 4.71875 0.203125 C 3.65625 0.203125 2.773438 -0.03125 2.078125 -0.5 C 1.390625 -0.976562 0.832031 -1.738281 0.40625 -2.78125 L 2.703125 -3.796875 C 2.921875 -3.242188 3.175781 -2.816406 3.46875 -2.515625 C 3.769531 -2.210938 4.097656 -2.0625 4.453125 -2.0625 C 4.972656 -2.0625 5.234375 -2.265625 5.234375 -2.671875 C 5.234375 -2.972656 5.128906 -3.242188 4.921875 -3.484375 C 4.710938 -3.734375 4.269531 -4.140625 3.59375 -4.703125 L 2.71875 -5.421875 C 2.007812 -6.023438 1.492188 -6.570312 1.171875 -7.0625 C 0.847656 -7.5625 0.6875 -8.15625 0.6875 -8.84375 C 0.6875 -9.476562 0.851562 -10.039062 1.1875 -10.53125 C 1.519531 -11.019531 1.96875 -11.40625 2.53125 -11.6875 C 3.09375 -11.976562 3.695312 -12.125 4.34375 -12.125 C 5.320312 -12.125 6.132812 -11.859375 6.78125 -11.328125 C 7.4375 -10.796875 7.90625 -10.035156 8.1875 -9.046875 L 6.015625 -8.0625 C 5.878906 -8.5 5.664062 -8.890625 5.375 -9.234375 C 5.09375 -9.585938 4.78125 -9.765625 4.4375 -9.765625 C 4.207031 -9.765625 4.023438 -9.703125 3.890625 -9.578125 C 3.765625 -9.453125 3.703125 -9.289062 3.703125 -9.09375 C 3.703125 -8.84375 3.835938 -8.570312 4.109375 -8.28125 C 4.378906 -8 4.800781 -7.625 5.375 -7.15625 L 6.21875 -6.40625 C 6.90625 -5.832031 7.4375 -5.296875 7.8125 -4.796875 C 8.1875 -4.296875 8.375 -3.707031 8.375 -3.03125 C 8.375 -2.351562 8.203125 -1.769531 7.859375 -1.28125 C 7.523438 -0.800781 7.078125 -0.429688 6.515625 -0.171875 C 5.960938 0.078125 5.363281 0.203125 4.71875 0.203125 Z M 4.71875 0.203125 "/></g></g><g style="fill:#000000;fill-opacity:1;"><g transform="translate(103.081382, 25.917644)"><path style="stroke:none" d="M 1.078125 -16.6875 L 4.40625 -16.6875 L 4.40625 -10.859375 C 5.25 -11.703125 6.226562 -12.125 7.34375 -12.125 C 8.03125 -12.125 8.5625 -11.863281 8.9375 -11.34375 C 9.320312 -10.832031 9.515625 -10.164062 9.515625 -9.34375 L 9.515625 0 L 6.1875 0 L 6.1875 -8.859375 C 6.1875 -9.160156 6.132812 -9.382812 6.03125 -9.53125 C 5.925781 -9.675781 5.75 -9.75 5.5 -9.75 C 5.207031 -9.75 4.84375 -9.601562 4.40625 -9.3125 L 4.40625 0 L 1.078125 0 Z M 1.078125 -16.6875 "/></g></g><g style="fill:#000000;fill-opacity:1;"><g transform="translate(114.391762, 25.917644)"><path style="stroke:none" d="M 3.5 0.203125 C 2.925781 0.203125 2.425781 0.0625 2 -0.21875 C 1.582031 -0.5 1.265625 -0.863281 1.046875 -1.3125 C 0.835938 -1.757812 0.734375 -2.222656 0.734375 -2.703125 C 0.734375 -3.617188 0.96875 -4.375 1.4375 -4.96875 C 1.90625 -5.5625 2.460938 -6.019531 3.109375 -6.34375 C 3.765625 -6.675781 4.609375 -7.019531 5.640625 -7.375 L 5.640625 -8.578125 C 5.640625 -8.921875 5.585938 -9.179688 5.484375 -9.359375 C 5.390625 -9.535156 5.210938 -9.625 4.953125 -9.625 C 4.679688 -9.625 4.488281 -9.539062 4.375 -9.375 C 4.269531 -9.207031 4.210938 -8.972656 4.203125 -8.671875 L 4.125 -7.8125 L 0.984375 -7.9375 C 1.046875 -9.363281 1.425781 -10.414062 2.125 -11.09375 C 2.820312 -11.78125 3.863281 -12.125 5.25 -12.125 C 6.414062 -12.125 7.304688 -11.796875 7.921875 -11.140625 C 8.546875 -10.484375 8.859375 -9.613281 8.859375 -8.53125 L 8.859375 -2.96875 C 8.859375 -1.757812 8.925781 -0.769531 9.0625 0 L 6.0625 0 C 5.9375 -0.914062 5.847656 -1.476562 5.796875 -1.6875 C 5.628906 -1.132812 5.351562 -0.679688 4.96875 -0.328125 C 4.582031 0.0234375 4.09375 0.203125 3.5 0.203125 Z M 4.703125 -2.0625 C 5.046875 -2.0625 5.359375 -2.257812 5.640625 -2.65625 L 5.640625 -5.921875 C 5.023438 -5.554688 4.554688 -5.175781 4.234375 -4.78125 C 3.921875 -4.394531 3.765625 -3.921875 3.765625 -3.359375 C 3.765625 -2.960938 3.847656 -2.644531 4.015625 -2.40625 C 4.179688 -2.175781 4.410156 -2.0625 4.703125 -2.0625 Z M 4.703125 -2.0625 "/></g></g><g style="fill:#000000;fill-opacity:1;"><g transform="translate(125.022294, 25.917644)"><path style="stroke:none" d="M 1.09375 -11.90625 L 4.453125 -11.90625 L 4.453125 -9.9375 C 4.859375 -10.664062 5.253906 -11.203125 5.640625 -11.546875 C 6.023438 -11.890625 6.476562 -12.0625 7 -12.0625 C 7.195312 -12.0625 7.367188 -12.039062 7.515625 -12 L 7.515625 -8.65625 C 7.109375 -8.820312 6.75 -8.90625 6.4375 -8.90625 C 5.707031 -8.90625 5.046875 -8.519531 4.453125 -7.75 L 4.453125 0 L 1.09375 0 Z M 1.09375 -11.90625 "/></g></g><g style="fill:#000000;fill-opacity:1;"><g transform="translate(133.736906, 25.917644)"><path style="stroke:none" d="M 4.953125 0.203125 C 3.640625 0.203125 2.617188 -0.140625 1.890625 -0.828125 C 1.160156 -1.523438 0.796875 -2.503906 0.796875 -3.765625 L 0.796875 -8.140625 C 0.796875 -9.398438 1.160156 -10.378906 1.890625 -11.078125 C 2.617188 -11.773438 3.640625 -12.125 4.953125 -12.125 C 6.265625 -12.125 7.25 -11.785156 7.90625 -11.109375 C 8.570312 -10.429688 8.90625 -9.441406 8.90625 -8.140625 L 8.90625 -5.75 L 4.125 -5.75 L 4.125 -3.46875 C 4.125 -2.613281 4.398438 -2.1875 4.953125 -2.1875 C 5.523438 -2.1875 5.8125 -2.570312 5.8125 -3.34375 L 5.8125 -4.59375 L 8.90625 -4.59375 L 8.90625 -3.4375 C 8.90625 -2.25 8.554688 -1.34375 7.859375 -0.71875 C 7.171875 -0.101562 6.203125 0.203125 4.953125 0.203125 Z M 5.8125 -7.3125 L 5.8125 -8.515625 C 5.8125 -8.953125 5.734375 -9.265625 5.578125 -9.453125 C 5.421875 -9.640625 5.203125 -9.734375 4.921875 -9.734375 C 4.660156 -9.734375 4.460938 -9.628906 4.328125 -9.421875 C 4.191406 -9.210938 4.125 -8.847656 4.125 -8.328125 L 4.125 -7.3125 Z M 5.8125 -7.3125 "/></g></g><g style="fill:#000000;fill-opacity:1;"><g transform="translate(144.243832, 25.917644)"><path style="stroke:none" d="M 0.953125 -3.171875 L 4.125 -3.171875 L 4.125 0 L 0.953125 0 Z M 0.953125 -3.171875 "/></g></g></g></svg>