<svg width="32" height="32" viewBox="0 0 32 32" fill="none" xmlns="http://www.w3.org/2000/svg">
  <!-- Green circular background -->
  <circle cx="16" cy="16" r="15" fill="#1a472a"/>
  
  <!-- Cowrie shell - positioned on side with slit facing viewer -->
  <g transform="translate(16, 16) rotate(-15)">
    <!-- Main shell body - oval shape -->
    <ellipse cx="0" cy="0" rx="10" ry="6.5" fill="#F5F0E6" stroke="#E8DFD0" stroke-width="0.4"/>
    
    <!-- Shell ridges/texture lines -->
    <ellipse cx="0" cy="0" rx="8.5" ry="5.5" fill="none" stroke="#E8DFD0" stroke-width="0.25"/>
    <ellipse cx="0" cy="0" rx="7" ry="4.5" fill="none" stroke="#E8DFD0" stroke-width="0.25"/>
    
    <!-- Central slit/opening - the distinctive cowrie feature -->
    <path d="M-9 0 Q-6 -1.2, -3 -0.8 Q0 -0.4, 3 -0.8 Q6 -1.2, 9 0 Q6 1.2, 3 0.8 Q0 0.4, -3 0.8 Q-6 1.2, -9 0" fill="#1a472a" stroke="#C4B8A8" stroke-width="0.2"/>
    
    <!-- Teeth along the slit -->
    <line x1="-7" y1="-0.6" x2="-7" y2="0.6" stroke="#D4C9B8" stroke-width="0.3"/>
    <line x1="-5" y1="-0.8" x2="-5" y2="0.8" stroke="#D4C9B8" stroke-width="0.3"/>
    <line x1="-3" y1="-0.7" x2="-3" y2="0.7" stroke="#D4C9B8" stroke-width="0.3"/>
    <line x1="-1" y1="-0.6" x2="-1" y2="0.6" stroke="#D4C9B8" stroke-width="0.3"/>
    <line x1="1" y1="-0.6" x2="1" y2="0.6" stroke="#D4C9B8" stroke-width="0.3"/>
    <line x1="3" y1="-0.7" x2="3" y2="0.7" stroke="#D4C9B8" stroke-width="0.3"/>
    <line x1="5" y1="-0.8" x2="5" y2="0.8" stroke="#D4C9B8" stroke-width="0.3"/>
    <line x1="7" y1="-0.6" x2="7" y2="0.6" stroke="#D4C9B8" stroke-width="0.3"/>
    
    <!-- Subtle shine/highlight -->
    <ellipse cx="-3" cy="-3" rx="3" ry="1.5" fill="white" opacity="0.12"/>
  </g>
</svg>
